<svg width="80" height="80" viewBox="0 0 80 80" fill="none" xmlns="http://www.w3.org/2000/svg">
<path d="M38.3593 12.6953C38.2968 12.7109 37.9297 12.7656 37.539 12.8125C36.8359 12.9062 36.2812 13.0312 35.625 13.2578C35.125 13.4297 33.6015 14.1719 33.3125 14.3906C31.9218 15.414 31.4609 15.8437 30.7031 16.8281C29.8828 17.8984 28.6718 19.9922 28.6718 20.3437C28.6718 20.4609 28.8359 20.5469 29.0547 20.5469C29.125 20.5469 29.6093 20.6875 30.125 20.8594C30.6328 21.039 31.1718 21.2109 31.3125 21.2578C31.4453 21.2969 31.5625 21.3594 31.5625 21.3984C31.5625 21.4297 31.6093 21.4609 31.664 21.4609C31.7109 21.4609 31.9843 21.5703 32.2656 21.6953C33.6875 22.3515 33.9843 22.4297 33.9843 22.1562C33.9843 22 34.8906 20.8125 35.3828 20.3203C35.9297 19.7734 36.5625 19.3437 37.125 19.125C38.4375 18.6172 40.1093 18.7265 41.2734 19.3906C41.4765 19.5156 41.6718 19.6094 41.7031 19.6094C41.8281 19.6094 42.9062 20.7344 43.1953 21.1562C43.9375 22.25 44.2656 23.0781 44.6093 24.6875C44.7422 25.3203 44.914 27.3359 44.914 28.2812C44.914 29.2344 44.75 30.9531 44.5781 31.7969C44.3125 33.0781 44.2734 33.2656 44.1328 33.8984C44.0547 34.2578 43.9609 34.5859 43.914 34.6328C43.8281 34.7187 43.6093 34.3203 43.3672 33.6015C43.2734 33.3281 43.125 32.9609 43.039 32.7812C42.789 32.289 42.0312 31.0859 41.7812 30.7969C41.664 30.6562 41.5625 30.5078 41.5625 30.4609C41.5625 30.25 38.3828 27.1875 38.1562 27.1875C38.1406 27.1875 38.0234 27.1015 37.9062 26.9922C37.789 26.8828 37.664 26.7969 37.6328 26.7969C37.5937 26.7969 37.3672 26.6406 37.125 26.4609C36.6328 26.0781 35.5 25.3515 35.1562 25.1875C35.0937 25.1562 34.8984 25.039 34.7265 24.9297C34.3672 24.7031 33.4218 24.2187 33.3437 24.2187C33.3125 24.2187 33.0703 24.1172 32.7968 23.9922C32.5234 23.875 32.164 23.7187 31.9922 23.6484C31.8203 23.5859 31.539 23.4765 31.3672 23.414C30.4922 23.0859 29.7109 22.8125 29.625 22.8125C29.5703 22.8125 29.1562 22.7031 28.6875 22.5781C26.2734 21.8906 26.0703 21.8594 23.8437 21.8594L21.8359 21.8515L20.8281 22.1328C20.2812 22.289 19.789 22.4453 19.7343 22.4844C19.6875 22.5156 19.5078 22.5937 19.3359 22.6484C18.8593 22.8125 18.1875 23.1328 17.9218 23.3359C17.789 23.4375 17.6562 23.5156 17.625 23.5156C17.4609 23.5156 16.4922 24.3047 16.0078 24.8359C14.8984 26.0312 14.0625 27.6953 13.5859 29.6484C13.4609 30.1875 13.4062 32.6484 13.5078 33.2812C13.6953 34.4375 13.75 34.6797 14.0078 35.3984C14.5234 36.8359 15.2265 38.0625 16.2656 39.3672C17.0468 40.3437 16.9531 40.3281 17.7734 39.5547C18.164 39.1953 18.5625 38.8359 18.6718 38.7656C18.7812 38.6953 19.3203 38.2734 19.8672 37.8281C20.4218 37.375 21.0468 36.8984 21.2578 36.7578L21.6484 36.5L21.1172 35.8672C20.1406 34.7031 19.9297 34.3515 19.6015 33.3203C19.4062 32.6875 19.3906 31.1875 19.5859 30.6015C19.9687 29.414 20.7656 28.6094 21.9687 28.2031C22.4609 28.039 22.5937 28.0312 24.1328 28.0625C25.2968 28.0781 25.8047 28.1172 25.875 28.1875C25.9218 28.2344 26.0703 28.2812 26.1875 28.2812C26.414 28.2812 27.5703 28.5469 27.8515 28.6719C27.9375 28.7031 28.2343 28.8125 28.5156 28.9062C28.7968 29 29.0625 29.1094 29.1015 29.1406C29.1484 29.1719 29.289 29.2187 29.414 29.25C29.7187 29.3203 32.3437 30.6172 32.8515 30.9453C33.2109 31.1797 34.0859 31.7578 34.4843 32.0312C34.7734 32.2344 35.8984 33.0781 35.9375 33.125C35.9609 33.1484 36.3437 33.4844 36.7968 33.8594C37.25 34.2422 37.6328 34.5859 37.6484 34.625C37.6562 34.664 37.6093 34.7422 37.5312 34.7969C37.4218 34.8828 36.9843 34.8906 35.5156 34.8594C33.9843 34.8281 33.5078 34.8515 32.9609 34.9531C32.5937 35.0234 32.1328 35.0781 31.9297 35.0781C31.7343 35.0781 31.4765 35.1172 31.3515 35.164C31.2343 35.2109 30.9218 35.2734 30.664 35.3125C29.9922 35.414 29.1797 35.5859 28.6328 35.7422C28.375 35.8125 28.0625 35.8984 27.9297 35.9375C27.5781 36.0234 26.789 36.2969 26.1093 36.5703C24.8437 37.0703 21.9297 38.6953 21.2734 39.2734C21.1093 39.414 20.9453 39.5312 20.9062 39.5312C20.8672 39.5312 20.7031 39.6484 20.5468 39.7812C20.3828 39.9219 20.0859 40.1562 19.8906 40.3047C19.1797 40.8203 16.9297 43.1562 16.3984 43.9219C14.9765 45.9609 14.5312 46.8594 13.8281 49.1094C13.4765 50.2187 13.4765 53.2422 13.8281 54.3359C14.6797 56.9844 15.7109 58.375 18.0078 59.9687C18.7187 60.4609 20.4609 61.1562 21.4453 61.3359C22.4843 61.5312 23.2578 61.5781 24.6875 61.539C26.3047 61.5 26.5234 61.4609 26.4453 61.2578C26.4218 61.1953 26.3281 60.875 26.2343 60.5469C25.8359 59.0781 25.6328 58.164 25.5468 57.5234C25.5078 57.2344 25.4375 56.6719 25.3828 56.2734L25.289 55.5547L23.914 55.5234C22.4531 55.5 22.3281 55.4765 21.6172 55.0547C20.8828 54.6172 19.9218 53.4922 19.9218 53.0625C19.9218 52.9922 19.8672 52.8281 19.8047 52.7031C19.6406 52.3906 19.6406 50.8047 19.8047 50.414C19.8672 50.2656 19.9218 50.0781 19.9218 50C19.9218 49.9219 19.9765 49.7578 20.039 49.6406C20.1015 49.5156 20.1562 49.3594 20.1562 49.2969C20.1562 49.2265 20.1953 49.1328 20.2422 49.0859C20.289 49.039 20.3672 48.9297 20.4218 48.8437C21.0859 47.6797 22.7734 45.914 24.1093 44.9609C25.7031 43.8281 26.8125 43.2109 28.375 42.5859C30.1328 41.8828 31.5703 41.4844 31.7578 41.6406C31.8593 41.7265 31.8203 42.1094 31.7187 42.1094C31.6875 42.1094 31.5234 42.3125 31.3593 42.5547C31.1875 42.8047 30.8125 43.3594 30.5078 43.7969C30.2109 44.2265 29.914 44.664 29.8515 44.7734C29.2734 45.75 29.0703 46.1562 28.7031 47.0547C28.4687 47.6172 28.2812 48.1406 28.2812 48.2109C28.2812 48.2812 28.2265 48.4687 28.164 48.6172C28.1015 48.7734 28.0468 49 28.0468 49.125C28.0468 49.2422 28.0156 49.375 27.9687 49.4219C27.8984 49.4922 27.8359 49.789 27.6172 51.2109C27.5547 51.5937 27.4687 52.125 27.4297 52.3828C27.3203 52.9687 27.3281 56.4687 27.4297 56.9922C27.4765 57.2031 27.539 57.5937 27.5703 57.8515C27.6562 58.4219 27.7812 58.9531 28.2109 60.4687C28.9843 63.2265 30.8047 66.2031 32.6718 67.75C34.0781 68.9297 35.2578 69.5078 36.9531 69.8672C37.625 70.0156 39.3672 70.1797 39.539 70.125C39.6015 70.1015 40.039 70.0469 40.5078 70.0078C41.6484 69.9062 42.5468 69.6797 43.3828 69.2812C43.625 69.1562 43.8593 69.0625 43.8984 69.0625C43.9297 69.0625 44.3281 68.8203 44.7734 68.5234C46.3906 67.4531 47.8359 65.8437 48.6718 64.1797C48.8203 63.875 48.9609 63.6172 48.9843 63.5937C49.0781 63.5 49.2968 63.125 49.2968 63.0469C49.2968 63 49.2031 62.9297 49.0859 62.8828C48.9609 62.8437 48.7656 62.7578 48.6328 62.7031C48.5078 62.6406 48.2031 62.5312 47.9687 62.4609C47.7343 62.3828 47.4687 62.2734 47.3828 62.2109C47.2968 62.1562 47.164 62.1094 47.0937 62.1094C47.0156 62.1094 46.8906 62.0781 46.8125 62.039C46.7422 62 46.5234 61.8984 46.3281 61.8125C46.1328 61.7265 45.5937 61.4687 45.125 61.2422C44.1953 60.7969 44.125 60.7969 43.8984 61.2344C43.8281 61.3672 43.6797 61.6015 43.5625 61.75C43.4531 61.8984 43.3593 62.039 43.3593 62.0625C43.3593 62.125 43.0547 62.4922 42.7578 62.7812C42.4453 63.0937 41.4922 63.6719 41 63.8594C40.5468 64.0234 39.25 64.164 38.7109 64.1015C37.5078 63.9531 36.1484 63.1015 35.4218 62.0312C34.9531 61.3437 34.8515 61.1797 34.5859 60.6797C34.4218 60.3906 34.2968 60.1015 34.2968 60.0469C34.2968 59.9844 34.25 59.7656 34.1875 59.5625C34.125 59.3515 34.039 58.9844 33.9922 58.75C33.9453 58.5156 33.8515 58.0703 33.789 57.7734C33.7187 57.4687 33.6328 56.875 33.5937 56.4453C33.5547 56.0156 33.4843 55.3594 33.4453 54.9922C33.3984 54.5469 33.3984 53.9765 33.4531 53.3515C33.4922 52.8203 33.5547 52.0156 33.5937 51.5625C33.6953 50.164 33.9609 48.8515 34.1797 48.6719C34.2812 48.5859 34.3281 48.6406 34.4922 49.0156C34.6015 49.2578 34.6875 49.5078 34.6875 49.5781C34.6875 49.9687 35.8125 51.8828 36.7031 53C37.3515 53.8203 38.7109 55.1875 39.3672 55.6875C40.1718 56.3047 41.1718 57.0312 41.2187 57.0312C41.2812 57.0312 41.7578 57.375 41.7812 57.4375C41.7968 57.4765 41.8437 57.5 41.8906 57.5C41.9297 57.5 42.0625 57.5625 42.1718 57.6484C42.289 57.7265 42.6797 57.9453 43.0468 58.1328C43.414 58.3125 43.7656 58.5078 43.8281 58.5547C43.9922 58.6797 46.4687 59.7734 46.7578 59.8515C46.8906 59.8828 47.3437 60.039 47.7734 60.1953C49.7109 60.9062 51.0859 61.2109 52.8906 61.3437C54.2422 61.4375 55.9453 61.3594 56.7656 61.164C60.0703 60.3906 62.4921 58.5703 63.7968 55.8906C64.1406 55.1797 64.2578 54.8594 64.5312 53.8672C64.664 53.4062 64.6875 53.0547 64.6875 51.5547C64.6875 49.75 64.6796 49.6953 64.3359 48.5859C64.2734 48.3828 64.2187 48.1797 64.2187 48.125C64.2187 48.0156 63.5468 46.625 63.2343 46.1015C63.0703 45.8125 62.7031 45.2969 62.4375 44.9609C62.4062 44.914 62.289 44.7422 62.1875 44.5703C62.0859 44.3984 61.9765 44.2422 61.9531 44.2187C61.8515 44.1328 61.3359 43.4687 61.3203 43.3984C61.2812 43.289 61.0703 43.0469 61.0078 43.0469C60.9843 43.0469 60.8593 43.1953 60.7343 43.375C60.6093 43.5547 60.3672 43.8281 60.2031 43.9844C60.0312 44.1328 59.7656 44.3828 59.6172 44.5312C59.4609 44.6875 59.0937 45.0078 58.789 45.2422C58.4922 45.4844 58.1953 45.7344 58.1328 45.8047C58.0781 45.8828 57.9843 45.9375 57.9297 45.9375C57.8828 45.9375 57.6328 46.1172 57.3828 46.3359C57.1328 46.5469 56.8515 46.7812 56.75 46.8515C56.6484 46.914 56.5625 47 56.5625 47.0312C56.5625 47.0703 56.7343 47.2656 56.9453 47.4609C57.164 47.664 57.3906 47.9453 57.4609 48.0937C57.5234 48.2344 57.664 48.4531 57.7578 48.5703C57.9843 48.8515 58.3047 49.4609 58.5078 50C58.6406 50.3515 58.6718 50.6094 58.6718 51.4219C58.6718 51.9687 58.6406 52.4297 58.6015 52.4609C58.5625 52.4844 58.5 52.6172 58.4765 52.7578C58.3047 53.5312 57.414 54.5312 56.5703 54.8906C55.5234 55.3359 53.5703 55.3437 51.7578 54.9219C50.4843 54.625 49.75 54.4219 49.2968 54.2578C48.5547 53.9844 48.2031 53.8515 47.5547 53.5625C47.3906 53.4922 47.2187 53.4375 47.1718 53.4375C47.0468 53.4375 46.4297 53.0781 44.7187 52C43.5234 51.25 42.3047 50.3437 41.25 49.4219C40.5156 48.7812 40.3125 48.5859 40.3125 48.5156C40.3125 48.3906 40.7578 48.3594 43.0078 48.3515C44.2968 48.3515 45.6484 48.3203 46.0156 48.2812C47.5625 48.1172 48.2812 48 49.2187 47.7344C49.3672 47.6875 49.789 47.5703 50.1562 47.4687C50.5234 47.3672 51.0468 47.2031 51.3281 47.1094C52.3125 46.7812 54.75 45.6406 55.0781 45.3515C55.1406 45.2969 55.3203 45.1953 55.4687 45.1172C55.8515 44.9219 56.4765 44.5078 57.3203 43.8906C58.1406 43.289 60.5468 40.9765 61.2265 40.1328C61.4765 39.8203 61.7343 39.5078 61.8125 39.4297C62.2968 38.8906 63.4921 36.8203 63.789 36.0156C63.8593 35.8203 63.9843 35.5078 64.0625 35.3125C64.1406 35.1172 64.2656 34.7344 64.3359 34.4531C64.4062 34.1719 64.5 33.8203 64.539 33.6719C64.6953 33.0859 64.7968 31.1015 64.7031 30.2031C64.6562 29.7187 64.5859 29.2422 64.5468 29.1328C64.5078 29.0312 64.414 28.7344 64.3359 28.4765C64.2656 28.2187 64.1328 27.8828 64.0546 27.7265C63.9687 27.5703 63.9062 27.3828 63.9062 27.3203C63.9062 27.2578 63.8828 27.1875 63.8515 27.1719C63.8125 27.1562 63.7187 27.0078 63.6406 26.8359C63.0312 25.5703 61.5937 24.0469 60.2422 23.2344C59.5859 22.8281 58.8437 22.4453 58.5547 22.3515C58.4297 22.3047 58.1093 22.1953 57.8515 22.1015C56.8281 21.7344 55.4922 21.5703 53.4687 21.5703C52.0234 21.5625 51.9765 21.5781 52.1015 22.0781C52.1484 22.25 52.2187 22.5547 52.2656 22.7734C52.3125 22.9844 52.3828 23.2656 52.4218 23.3984C52.4609 23.5234 52.5312 23.8672 52.5703 24.1562C52.6093 24.4453 52.664 24.7187 52.6875 24.7578C52.7109 24.7969 52.7734 25.2656 52.8203 25.7969C52.875 26.3203 52.9297 26.9531 52.9609 27.1875L53.0078 27.6094L53.9843 27.6172C55.2265 27.6328 55.9297 27.7969 56.6953 28.2578C57.6875 28.8594 58.2109 29.6328 58.5234 30.9453C58.6953 31.664 58.6953 31.6797 58.5625 32.3828C58.2265 34.1094 57.3359 35.5781 55.6093 37.2265C54.4297 38.3515 53.7968 38.8437 52.6562 39.5234C52.2031 39.789 51.7812 40.039 51.7187 40.0781C51.5547 40.1797 50.414 40.7344 50.039 40.8906C49.8672 40.9609 49.664 41.0547 49.5937 41.0937C49.5156 41.1406 49.4062 41.1719 49.3437 41.1719C49.2812 41.1719 49.1328 41.2109 49.0078 41.2656C48.7187 41.3828 47.3593 41.7109 46.5859 41.8515C46.1484 41.9219 46.1718 41.5781 46.625 41.1015C46.8984 40.8203 47.25 40.3437 47.4531 39.9609C47.5703 39.7422 47.7343 39.5 47.8047 39.414C47.8828 39.3281 47.9687 39.2031 48 39.1406C48.0312 39.0781 48.0937 38.9531 48.1484 38.8672C48.4687 38.3359 48.8672 37.6015 48.8828 37.4844C48.8906 37.414 48.9687 37.2422 49.0547 37.0937C49.1328 36.9531 49.3515 36.4453 49.5312 35.9765C49.7109 35.5 49.9062 35.0078 49.9609 34.8828C50.0156 34.75 50.0859 34.5625 50.1093 34.4531C50.1953 34.039 50.3359 33.5469 50.4375 33.2969C50.5 33.1562 50.5468 32.9453 50.5468 32.8359C50.5468 32.7265 50.5937 32.4531 50.6562 32.2344C51.0156 30.9531 51.1484 27.3359 50.8906 25.6797C50.6328 23.9453 50.2031 22.1094 49.8203 21.039C49.6015 20.4453 48.9218 18.9297 48.789 18.75C48.7422 18.6875 48.625 18.4765 48.5156 18.2812C48.039 17.375 46.4922 15.625 45.5 14.8594C44.4297 14.0312 43.1875 13.414 41.7968 13.0234C40.9218 12.7734 38.9297 12.5859 38.3593 12.6953ZM39.9609 35.8125C41.4765 36.0781 42.6875 36.789 43.6093 37.9687C44.2578 38.7969 44.6718 39.6953 44.8437 40.625C44.8906 40.9062 44.9453 41.2031 44.9609 41.289C45.0078 41.5234 44.7734 43.1172 44.625 43.5156C44.0859 45.0156 43.0234 46.1406 41.4062 46.9297C40.4765 47.375 40.4922 47.375 39.2187 47.3672C38.1797 47.3672 37.9297 47.3437 37.5078 47.1953C36.5859 46.875 35.7422 46.375 35.0937 45.75C34.7265 45.4062 34.0625 44.4531 34.0625 44.2812C34.0625 44.2187 34.0156 44.1094 33.9531 44.0234C33.8437 43.8515 33.6718 43.3047 33.4687 42.4687C33.0703 40.789 33.9062 38.375 35.2968 37.2109C36.2812 36.375 37.3047 35.8984 38.3281 35.789C39.2187 35.6953 39.2734 35.6953 39.9609 35.8125Z" fill="#334155"/>
<path d="M38.7656 38.0547C38.1874 38.1172 37.8124 38.2344 37.1953 38.5391C36.8671 38.7032 36.1328 39.586 35.8671 40.1328C35.6093 40.6485 35.6015 40.6953 35.6015 41.6016C35.6093 42.4453 35.6249 42.586 35.8124 43C36.1406 43.7188 36.4296 44.0703 37.0703 44.5235C37.7656 45.0157 39.0546 45.2657 39.9609 45.0782C40.9453 44.8828 41.9921 44.0782 42.4999 43.125C42.7656 42.6328 42.7734 42.5938 42.7734 41.7188C42.7734 40.6563 42.6953 40.4219 42.0468 39.5469C41.6484 39.0078 40.8515 38.3594 40.5937 38.3594C40.5468 38.3594 40.4687 38.3282 40.4296 38.2969C40.3593 38.2344 39.8437 38.0782 39.5312 38.0157C39.4687 38 39.1249 38.0235 38.7656 38.0547Z" fill="#334155"/>
</svg>
